<svg xmlns="http://www.w3.org/2000/svg"><symbol id="signal" viewBox="0 0 24 24"><path d="M12,1c.571,0,1.131.043,1.678.127l-.157,1.019c-.496-.076-1.004-.115-1.521-.115s-1.025.039-1.521.115l-.157-1.019c.547-.084,1.108-.127,1.678-.127ZM14.61,1.312l-.245,1.002c1.005.245,1.95.642,2.81,1.165l.536-.882c-.949-.578-1.992-1.016-3.101-1.286ZM18.501,3.126l-.609.832c.822.603,1.548,1.329,2.151,2.151l.832-.609c-.665-.907-1.467-1.708-2.374-2.374ZM21.403,6.288l-.882.535c.523.86.92,1.805,1.165,2.81l1.002-.245c-.27-1.109-.708-2.152-1.286-3.101ZM22.873,10.322l-1.019.157c.076.496.115,1.004.115,1.521s-.039,1.025-.115,1.521l1.019.157c.084-.547.127-1.108.127-1.678s-.043-1.131-.127-1.678ZM20.521,17.176c.523-.86.92-1.805,1.165-2.811l1.002.245c-.27,1.109-.708,2.152-1.286,3.101l-.882-.535ZM20.042,17.891l.832.609c-.665.907-1.467,1.708-2.374,2.374l-.61-.832c.822-.603,1.548-1.329,2.151-2.151ZM17.176,20.521l.535.882c-.949.578-1.992,1.016-3.101,1.286l-.245-1.002c1.005-.245,1.951-.642,2.81-1.165h0ZM13.521,21.853l.157,1.019c-.547.084-1.108.127-1.678.127s-1.131-.043-1.679-.127l.157-1.019c.496.076,1.004.115,1.521.115s1.025-.039,1.521-.115ZM9.634,21.687l-.245,1.002c-.833-.203-1.629-.5-2.376-.881l-1.044.244-.234-1.004,1.411-.329.336.171c.676.345,1.397.614,2.152.798h0ZM4.865,21.25l.234,1.004-1.789.417c-1.191.278-2.26-.791-1.982-1.982l.418-1.79,1.004.234-.418,1.79c-.104.447.297.847.743.743l1.789-.418ZM2.953,18.264l-1.004-.234.244-1.044c-.38-.747-.678-1.543-.881-2.376l1.002-.245c.184.755.453,1.476.798,2.152l.171.336-.329,1.411ZM2.146,13.521l-1.019.157c-.084-.547-.127-1.108-.127-1.678s.043-1.131.127-1.678l1.019.157c-.076.496-.115,1.004-.115,1.521s.039,1.025.115,1.521ZM2.314,9.634l-1.002-.245c.27-1.109.708-2.152,1.286-3.101l.882.535c-.523.86-.92,1.805-1.165,2.81ZM3.958,6.109l-.832-.609c.665-.907,1.467-1.708,2.374-2.374l.609.832c-.822.603-1.548,1.329-2.151,2.151ZM6.824,3.479l-.535-.882c.949-.578,1.992-1.016,3.101-1.286l.245,1.002c-1.005.245-1.95.642-2.81,1.165ZM20.937,12c0,4.936-4.001,8.938-8.938,8.938-1.566,0-3.037-.403-4.317-1.11-.123-.068-.267-.09-.404-.059l-3.976.928.928-3.976c.032-.137.01-.281-.059-.404-.707-1.28-1.11-2.751-1.11-4.317C3.062,7.064,7.064,3.062,12,3.062s8.938,4.001,8.938,8.938h0Z" /></symbol><symbol id="nostr" viewBox="0 0 24 24"><path d="M23,10.589v11.618c0,.437-.352.792-.786.792h-9.428c-.434,0-.786-.355-.786-.792v-2.164c.043-2.652.321-5.193.906-6.349.351-.695.928-1.073,1.592-1.276,1.254-.38,3.454-.12,4.388-.165,0,0,2.821.113,2.821-1.496,0-1.295-1.261-1.193-1.261-1.193-1.39.036-2.448-.059-3.134-.331-1.149-.455-1.188-1.29-1.192-1.569-.057-3.225-4.776-3.611-8.935-2.811-4.546.871.05,7.436.05,16.2v1.17c-.008.43-.353.778-.783.778H1.786c-.434,0-.786-.355-.786-.792V2.114c0-.437.352-.791.786-.791h4.388c.434,0,.786.355.786.791,0,.649.725,1.011,1.248.632,1.578-1.139,3.604-1.746,5.871-1.746,5.078,0,8.918,2.982,8.918,9.589h.003ZM14.57,8.231c0-.935-.752-1.693-1.681-1.693s-1.681.758-1.681,1.693.752,1.693,1.681,1.693,1.681-.758,1.681-1.693Z" /></symbol><symbol id="rss" viewBox="0 0 24 24"><path d="M22.999,7.094c-.001-.221-.004-.443-.01-.664-.013-.482-.041-.968-.127-1.445-.087-.484-.229-.934-.453-1.374-.22-.432-.507-.827-.85-1.17-.343-.343-.738-.63-1.17-.85-.44-.224-.89-.366-1.373-.453-.477-.086-.963-.114-1.445-.127-.221-.006-.443-.009-.664-.01-.263-.002-.526-.001-.788-.001H7.882c-.263,0-.526,0-.788.001-.221.001-.443.004-.664.01-.482.013-.969.041-1.445.127-.484.087-.934.229-1.373.453-.432.22-.827.507-1.17.85-.343.343-.63.738-.85,1.17-.224.44-.366.89-.453,1.374-.086.477-.114.963-.127,1.445-.006.221-.009.443-.01.664-.002.263-.001.525-.001.788v8.236c0,.263,0,.526.001.788.001.221.004.443.01.664.013.482.041.968.127,1.445.087.484.229.934.453,1.374.22.432.507.827.85,1.17s.738.63,1.17.85c.44.224.89.366,1.373.453.477.086.963.114,1.445.127.221.006.443.008.664.01.263.002.526.002.788.002h8.236c.263,0,.526,0,.788-.002.221-.001.443-.004.664-.01.482-.013.969-.041,1.445-.127.484-.087.934-.229,1.373-.453.432-.22.827-.507,1.17-.85s.63-.738.85-1.17c.224-.44.366-.89.453-1.374.086-.477.114-.963.127-1.445.006-.221.009-.443.01-.664.002-.263.001-.526.001-.788V7.882c0-.263,0-.526-.001-.788ZM7.333,19c-1.289,0-2.333-1.045-2.333-2.333s1.045-2.333,2.333-2.333,2.333,1.045,2.333,2.333-1.045,2.333-2.333,2.333ZM12,19c0-3.866-3.134-7-7-7v-2.333c5.155,0,9.333,4.179,9.333,9.333h-2.333ZM16.667,19c0-6.443-5.223-11.667-11.667-11.667v-2.333c7.732,0,14,6.268,14,14h-2.333Z"/></symbol><symbol id="github" viewBox="0 0 24 24"><path d="m12.009,1C5.921,1,1,6.042,1,12.279c0,4.986,3.153,9.206,7.528,10.7.547.112.747-.243.747-.541,0-.261-.018-1.158-.018-2.092-3.062.672-3.7-1.345-3.7-1.345-.492-1.307-1.221-1.643-1.221-1.643-1.002-.691.073-.691.073-.691,1.112.075,1.695,1.158,1.695,1.158.984,1.718,2.57,1.232,3.208.934.091-.728.383-1.232.693-1.512-2.443-.261-5.012-1.232-5.012-5.565,0-1.232.437-2.241,1.13-3.025-.109-.28-.492-1.438.11-2.988,0,0,.93-.299,3.026,1.158.897-.247,1.823-.372,2.752-.374.93,0,1.877.131,2.752.374,2.096-1.457,3.026-1.158,3.026-1.158.602,1.55.219,2.708.109,2.988.711.784,1.13,1.793,1.13,3.025,0,4.332-2.57,5.285-5.031,5.565.401.355.747,1.027.747,2.091,0,1.512-.018,2.726-.018,3.1,0,.299.201.654.747.542,4.374-1.494,7.528-5.714,7.528-10.7.018-6.237-4.921-11.279-10.991-11.279Z"/></symbol></svg>